<?xml version="1.0" encoding="utf-8"?>
<!-- Generator: Adobe Illustrator 23.0.5, SVG Export Plug-In . SVG Version: 6.00 Build 0)  -->
<svg version="1.1" id="_x2014_ÎÓÈ_x5F_1" xmlns="http://www.w3.org/2000/svg" xmlns:xlink="http://www.w3.org/1999/xlink"
	 x="0px" y="0px" viewBox="0 0 102.7 99.5" style="enable-background:new 0 0 102.7 99.5;" xml:space="preserve">
<style type="text/css">
	.st0{fill:#2C2C2C;}
</style>
<g>
	<path class="st0" d="M99.3,89c2.4,2.4,2.4,6.4,0,8.8c-1.2,1.2-2.8,1.8-4.4,1.8c-1.5,0-3.1-0.6-4.4-1.8L51.3,58.5L12.1,97.7
		c-1.2,1.2-2.8,1.8-4.4,1.8c-1.6,0-3.1-0.6-4.4-1.8c-2.4-2.4-2.4-6.4,0-8.8l39.2-39.2L3.3,10.6c-2.4-2.4-2.4-6.4,0-8.8
		c2.4-2.4,6.4-2.4,8.8,0L51.3,41L90.5,1.8c2.4-2.4,6.4-2.4,8.8,0c2.4,2.4,2.4,6.4,0,8.8L60.1,49.8L99.3,89z"/>
</g>
</svg>
